REM DIRINDEX 1\6,1\2\7,1\2\8,1\2\9,1\3\10,1\3\11,1\4\12,1\4\13,1\4\14,1\5\15,1\5\16,1\5\17
REM DIRNAME folder01,folder02,folder03,folder04,folder05,folder06,folder07,folder08,folder09,folder10,folder11,folder12,folder13,folder14,folder15,folder16,folder17
TITLE ""
FILE "P2Q_t2_0736-0752.mp3" MP3
  TRACK 01 AUDIO
    TITLE "6:cjc040_6039"
    INDEX 01 00:00:00
  TRACK 02 AUDIO
    TITLE "0:"
    INDEX 01 00:05:44
  TRACK 03 AUDIO
    TITLE "7:cjc040_6040"
    INDEX 01 00:06:55
  TRACK 04 AUDIO
    TITLE "0:"
    INDEX 01 00:07:64
  TRACK 05 AUDIO
    TITLE "8:cjc040_6041"
    INDEX 01 00:08:38
  TRACK 06 AUDIO
    TITLE "0:"
    INDEX 01 00:10:06
  TRACK 07 AUDIO
    TITLE "9:cjc040_6042"
    INDEX 01 00:10:61
  TRACK 08 AUDIO
    TITLE "0:"
    INDEX 01 00:11:66
  TRACK 09 AUDIO
    TITLE "7:cjc040_6043"
    INDEX 01 00:13:49
  TRACK 10 AUDIO
    TITLE "0:"
    INDEX 01 00:14:62
  TRACK 11 AUDIO
    TITLE "8:cjc040_6044"
    INDEX 01 00:15:46
  TRACK 12 AUDIO
    TITLE "0:"
    INDEX 01 00:18:39
  TRACK 13 AUDIO
    TITLE "9:cjc040_6045"
    INDEX 01 00:19:16
  TRACK 14 AUDIO
    TITLE "0:"
    INDEX 01 00:20:24
  TRACK 15 AUDIO
    TITLE "7:cjc040_6046"
    INDEX 01 00:22:05
  TRACK 16 AUDIO
    TITLE "0:"
    INDEX 01 00:23:42
  TRACK 17 AUDIO
    TITLE "8:cjc040_6047"
    INDEX 01 00:24:27
  TRACK 18 AUDIO
    TITLE "0:"
    INDEX 01 00:27:36
  TRACK 19 AUDIO
    TITLE "9:cjc040_6048"
    INDEX 01 00:28:21
  TRACK 20 AUDIO
    TITLE "0:"
    INDEX 01 00:29:56
  TRACK 21 AUDIO
    TITLE "7:cjc040_6049"
    INDEX 01 00:31:39
  TRACK 22 AUDIO
    TITLE "0:"
    INDEX 01 00:32:58
  TRACK 23 AUDIO
    TITLE "8:cjc040_6050"
    INDEX 01 00:33:38
  TRACK 24 AUDIO
    TITLE "0:"
    INDEX 01 00:34:67
  TRACK 25 AUDIO
    TITLE "9:cjc040_6051"
    INDEX 01 00:35:43
  TRACK 26 AUDIO
    TITLE "0:"
    INDEX 01 00:36:64
  TRACK 27 AUDIO
    TITLE "7:cjc040_6052"
    INDEX 01 00:38:47
  TRACK 28 AUDIO
    TITLE "0:"
    INDEX 01 00:39:68
  TRACK 29 AUDIO
    TITLE "8:cjc040_6053"
    INDEX 01 00:40:48
  TRACK 30 AUDIO
    TITLE "0:"
    INDEX 01 00:42:10
  TRACK 31 AUDIO
    TITLE "9:cjc040_6054"
    INDEX 01 00:42:66
  TRACK 32 AUDIO
    TITLE "0:"
    INDEX 01 00:44:14
  TRACK 33 AUDIO
    TITLE "7:cjc040_6055"
    INDEX 01 00:45:71
  TRACK 34 AUDIO
    TITLE "0:"
    INDEX 01 00:47:27
  TRACK 35 AUDIO
    TITLE "8:cjc040_6056"
    INDEX 01 00:48:06
  TRACK 36 AUDIO
    TITLE "0:"
    INDEX 01 00:49:41
  TRACK 37 AUDIO
    TITLE "9:cjc040_6057"
    INDEX 01 00:50:15
  TRACK 38 AUDIO
    TITLE "0:"
    INDEX 01 00:51:50
  TRACK 39 AUDIO
    TITLE "7:cjc040_6058"
    INDEX 01 00:53:29
  TRACK 40 AUDIO
    TITLE "0:"
    INDEX 01 00:54:54
  TRACK 41 AUDIO
    TITLE "8:cjc040_6059"
    INDEX 01 00:55:36
  TRACK 42 AUDIO
    TITLE "0:"
    INDEX 01 00:59:39
  TRACK 43 AUDIO
    TITLE "9:cjc040_6060"
    INDEX 01 01:00:15
  TRACK 44 AUDIO
    TITLE "0:"
    INDEX 01 01:01:38
  TRACK 45 AUDIO
    TITLE "7:cjc040_6061"
    INDEX 01 01:03:16
  TRACK 46 AUDIO
    TITLE "0:"
    INDEX 01 01:04:50
  TRACK 47 AUDIO
    TITLE "8:cjc040_6062"
    INDEX 01 01:05:26
  TRACK 48 AUDIO
    TITLE "0:"
    INDEX 01 01:06:69
  TRACK 49 AUDIO
    TITLE "9:cjc040_6063"
    INDEX 01 01:07:47
  TRACK 50 AUDIO
    TITLE "0:"
    INDEX 01 01:09:10
  TRACK 51 AUDIO
    TITLE "7:cjc040_6064"
    INDEX 01 01:10:61
  TRACK 52 AUDIO
    TITLE "0:"
    INDEX 01 01:11:66
  TRACK 53 AUDIO
    TITLE "8:cjc040_6065"
    INDEX 01 01:12:44
  TRACK 54 AUDIO
    TITLE "0:"
    INDEX 01 01:13:71
  TRACK 55 AUDIO
    TITLE "9:cjc040_6066"
    INDEX 01 01:14:35
  TRACK 56 AUDIO
    TITLE "0:"
    INDEX 01 01:15:42
  TRACK 57 AUDIO
    TITLE "7:cjc040_6067"
    INDEX 01 01:17:26
  TRACK 58 AUDIO
    TITLE "0:"
    INDEX 01 01:18:43
  TRACK 59 AUDIO
    TITLE "8:cjc040_6068"
    INDEX 01 01:19:21
  TRACK 60 AUDIO
    TITLE "0:"
    INDEX 01 01:20:12
  TRACK 61 AUDIO
    TITLE "9:cjc040_6069"
    INDEX 01 01:20:65
  TRACK 62 AUDIO
    TITLE "0:"
    INDEX 01 01:22:15
  TRACK 63 AUDIO
    TITLE "7:cjc040_6070"
    INDEX 01 01:23:65
  TRACK 64 AUDIO
    TITLE "0:"
    INDEX 01 01:25:02
  TRACK 65 AUDIO
    TITLE "8:cjc040_6071"
    INDEX 01 01:25:51
  TRACK 66 AUDIO
    TITLE "0:"
    INDEX 01 01:26:66
  TRACK 67 AUDIO
    TITLE "9:cjc040_6072"
    INDEX 01 01:27:48
  TRACK 68 AUDIO
    TITLE "0:"
    INDEX 01 01:28:61
  TRACK 69 AUDIO
    TITLE "7:cjc040_6073"
    INDEX 01 01:30:42
  TRACK 70 AUDIO
    TITLE "0:"
    INDEX 01 01:31:55
  TRACK 71 AUDIO
    TITLE "8:cjc040_6074"
    INDEX 01 01:32:35
  TRACK 72 AUDIO
    TITLE "0:"
    INDEX 01 01:35:26
  TRACK 73 AUDIO
    TITLE "9:cjc040_6075"
    INDEX 01 01:35:73
  TRACK 74 AUDIO
    TITLE "0:"
    INDEX 01 01:37:09
  TRACK 75 AUDIO
    TITLE "7:cjc040_6076"
    INDEX 01 01:38:63
  TRACK 76 AUDIO
    TITLE "0:"
    INDEX 01 01:40:01
  TRACK 77 AUDIO
    TITLE "8:cjc040_6077"
    INDEX 01 01:40:50
  TRACK 78 AUDIO
    TITLE "0:"
    INDEX 01 01:42:08
  TRACK 79 AUDIO
    TITLE "9:cjc040_6078"
    INDEX 01 01:42:61
  TRACK 80 AUDIO
    TITLE "0:"
    INDEX 01 01:44:01
  TRACK 81 AUDIO
    TITLE "7:cjc040_6079"
    INDEX 01 01:45:59
  TRACK 82 AUDIO
    TITLE "0:"
    INDEX 01 01:47:11
  TRACK 83 AUDIO
    TITLE "8:cjc040_6080"
    INDEX 01 01:47:62
  TRACK 84 AUDIO
    TITLE "0:"
    INDEX 01 01:49:20
  TRACK 85 AUDIO
    TITLE "9:cjc040_6081"
    INDEX 01 01:50:00
  TRACK 86 AUDIO
    TITLE "0:"
    INDEX 01 01:51:34
  TRACK 87 AUDIO
    TITLE "7:cjc040_6082"
    INDEX 01 01:53:18
  TRACK 88 AUDIO
    TITLE "0:"
    INDEX 01 01:54:37
  TRACK 89 AUDIO
    TITLE "8:cjc040_6083"
    INDEX 01 01:55:16
  TRACK 90 AUDIO
    TITLE "0:"
    INDEX 01 01:57:74
  TRACK 91 AUDIO
    TITLE "9:cjc040_6084"
    INDEX 01 01:58:48
  TRACK 92 AUDIO
    TITLE "0:"
    INDEX 01 01:59:73
  TRACK 93 AUDIO
    TITLE "7:cjc040_6085"
    INDEX 01 02:01:56
  TRACK 94 AUDIO
    TITLE "0:"
    INDEX 01 02:02:73
  TRACK 95 AUDIO
    TITLE "8:cjc040_6086"
    INDEX 01 02:03:51
  TRACK 96 AUDIO
    TITLE "0:"
    INDEX 01 02:04:62
  TRACK 97 AUDIO
    TITLE "9:cjc040_6087"
    INDEX 01 02:05:44
  TRACK 98 AUDIO
    TITLE "0:"
    INDEX 01 02:06:65
  TRACK 99 AUDIO
    TITLE "7:cjc040_6088"
    INDEX 01 02:08:50
  TRACK 100 AUDIO
    TITLE "0:"
    INDEX 01 02:09:73
  TRACK 101 AUDIO
    TITLE "8:cjc040_6089"
    INDEX 01 02:10:49
  TRACK 102 AUDIO
    TITLE "0:"
    INDEX 01 02:12:19
  TRACK 103 AUDIO
    TITLE "9:cjc040_6090"
    INDEX 01 02:12:70
  TRACK 104 AUDIO
    TITLE "0:"
    INDEX 01 02:14:16
